<svg width="24" height="24" viewBox="0 0 24 24" fill="none" xmlns="http://www.w3.org/2000/svg">
<path d="M17.115 1.5C17.505 1.5 17.865 1.6125 18.18 1.8C18.3525 1.9125 22.5225 4.725 22.5375 9.8025C22.5375 12.1605 21.636 14.0895 20.6737 15.4755C20.2543 16.3775 19.7171 17.2198 19.0762 17.9805L19.0747 17.9828C18.636 18.4999 18.16 18.9842 17.6505 19.4318C17.1868 19.8739 16.6915 20.2818 16.1685 20.652C13.764 22.3658 10.8735 23.25 7.935 23.25H2.25C1.4235 23.25 0.75 22.5765 0.75 21.75V15C0.75 14.1735 1.4235 13.5 2.25 13.5H5.595C6.3855 13.5 7.1115 13.08 7.50225 12.399L7.50375 12.3953L11.49 5.54025C11.8131 4.95525 12.33 4.50119 12.9517 4.25625C13.1805 2.8065 14.529 1.74375 15.9487 1.87575C16.2882 1.63081 16.6964 1.49931 17.115 1.5ZM16.314 3.54225C15.4942 3.0495 14.3497 3.71475 14.421 4.77975L14.4247 4.84125C14.6467 4.8825 14.8672 4.96125 15.075 5.0775C15.3592 5.23396 15.6044 5.45264 15.7922 5.7172C15.98 5.98175 16.1056 6.28534 16.1595 6.60525L16.6507 7.28625C17.4547 8.4 17.8725 9.624 17.8725 10.92C17.8725 11.076 17.865 11.223 17.8575 11.355L17.856 11.3895L17.8552 11.4C17.718 13.11 16.275 14.4075 14.5725 14.4075C14.2585 14.4064 13.9502 14.3233 13.6781 14.1665C13.4061 14.0098 13.1796 13.7847 13.0211 13.5136C12.8627 13.2425 12.7777 12.9348 12.7746 12.6208C12.7715 12.3068 12.8504 11.9974 13.0035 11.7233C13.2772 11.2283 13.557 10.7543 13.8322 10.2908C14.3962 9.33825 14.9362 8.427 15.345 7.44825L15.3502 7.43625L15.3832 7.35675C15.4727 7.05041 15.4551 6.72271 15.3332 6.42776C15.2113 6.13282 14.9924 5.88827 14.7127 5.7345L14.709 5.73225C14.4407 5.57868 14.1273 5.52301 13.8225 5.57475L13.6042 5.61525C13.2604 5.72017 12.9715 5.9558 12.7995 6.2715L12.7957 6.279L8.802 13.1475C8.47754 13.711 8.01021 14.179 7.44716 14.5042C6.88411 14.8295 6.24524 15.0005 5.595 15H2.25V21.75H7.935C10.575 21.75 13.1595 20.955 15.3 19.4295L15.3037 19.4265C15.7708 19.0943 16.2134 18.7292 16.6282 18.3338L16.6395 18.3233L16.6507 18.3128C17.1086 17.9116 17.5363 17.4771 17.9302 17.013C21.4102 12.8843 20.9107 6.61725 16.314 3.54225ZM15.0562 11.1705C14.7952 11.613 14.541 12.042 14.3137 12.453L14.3115 12.4583L14.3085 12.4628C14.2843 12.5047 14.2719 12.5524 14.2725 12.6008C14.2725 12.7748 14.4127 12.9083 14.5725 12.9083C15.507 12.9083 16.2817 12.2003 16.359 11.2905V11.2883C16.3665 11.1473 16.3725 11.0363 16.3725 10.9208C16.3735 10.3908 16.2785 9.872 16.0875 9.3645C15.7597 9.98175 15.4012 10.5878 15.0562 11.1713" fill="white"/>
</svg>
