<svg width="24" height="24" viewBox="0 0 24 24" fill="none" xmlns="http://www.w3.org/2000/svg">
<path d="M6 5.72403C6.00011 5.37379 6.0922 5.02972 6.26704 4.72625C6.44188 4.42278 6.69335 4.17054 6.99629 3.99477C7.29922 3.819 7.64301 3.72587 7.99324 3.72468C8.34348 3.7235 8.68788 3.81431 8.992 3.98803L19.976 10.264C20.2819 10.439 20.5361 10.6917 20.7129 10.9966C20.8898 11.3014 20.9829 11.6476 20.9829 12C20.9829 12.3524 20.8898 12.6986 20.7129 13.0035C20.5361 13.3083 20.2819 13.561 19.976 13.736L8.992 20.014C8.68788 20.1877 8.34348 20.2786 7.99324 20.2774C7.64301 20.2762 7.29922 20.1831 6.99629 20.0073C6.69335 19.8315 6.44188 19.5793 6.26704 19.2758C6.0922 18.9723 6.00011 18.6283 6 18.278V5.72403ZM18.984 12L8 5.72403V18.278L18.984 12Z" fill="white"/>
</svg>
