<svg width="24" height="24" viewBox="0 0 24 24" fill="none" xmlns="http://www.w3.org/2000/svg">
<path d="M11.0001 2C10.1776 2 9.36394 2.16909 8.60956 2.49678C7.85518 2.82447 7.17624 3.30375 6.61488 3.90487C6.05353 4.50599 5.62175 5.2161 5.34637 5.9911C5.071 6.76611 4.9579 7.58945 5.0141 8.41C4.24095 8.74431 3.56479 9.26853 3.04839 9.93399C2.53198 10.5995 2.19207 11.3846 2.06019 12.2165C1.92832 13.0485 2.00876 13.9003 2.29405 14.6928C2.57935 15.4854 3.06024 16.193 3.6921 16.75C3.89101 16.9256 4.15152 17.0149 4.41632 16.9984C4.68113 16.9819 4.92853 16.8609 5.1041 16.662C5.27967 16.4631 5.36904 16.2026 5.35253 15.9378C5.33603 15.673 5.21501 15.4256 5.0161 15.25C4.60182 14.8841 4.29658 14.411 4.13403 13.8828C3.97147 13.3545 3.95791 12.7916 4.09482 12.2562C4.23174 11.7207 4.51383 11.2334 4.91 10.848C5.30618 10.4626 5.80105 10.1941 6.3401 10.072C6.59856 10.014 6.82343 9.85574 6.96535 9.63207C7.10728 9.40841 7.15466 9.13757 7.0971 8.879C6.98685 8.36533 6.97886 7.83498 7.07358 7.31823C7.1683 6.80148 7.36387 6.30844 7.64913 5.86727C7.9344 5.4261 8.30376 5.04543 8.73614 4.74701C9.16851 4.44858 9.65543 4.23824 10.1691 4.128C10.6828 4.01776 11.2131 4.00976 11.7299 4.10448C12.2466 4.1992 12.7397 4.39477 13.1808 4.68004C13.622 4.9653 14.0027 5.33466 14.3011 5.76704C14.5995 6.19941 14.8099 6.68633 14.9201 7.2C14.9668 7.4291 15.0923 7.63459 15.2749 7.78075C15.4574 7.9269 15.6853 8.00448 15.9191 8H16.0001C16.8396 8 17.6579 8.26415 18.3389 8.75503C19.02 9.24591 19.5293 9.93864 19.7948 10.7351C20.0603 11.5315 20.0685 12.3913 19.8182 13.1927C19.5678 13.994 19.0717 14.6963 18.4001 15.2C18.295 15.2789 18.2065 15.3776 18.1397 15.4907C18.0728 15.6038 18.0288 15.7289 18.0103 15.8589C17.9918 15.989 17.999 16.1214 18.0317 16.2486C18.0643 16.3759 18.1217 16.4954 18.2006 16.6005C18.2795 16.7056 18.3782 16.7941 18.4913 16.8609C18.6044 16.9278 18.7295 16.9718 18.8595 16.9903C18.9896 17.0088 19.122 17.0016 19.2492 16.9689C19.3765 16.9363 19.496 16.8789 19.6011 16.8C20.5625 16.0787 21.2852 15.0854 21.6755 13.9486C22.0657 12.8118 22.1056 11.584 21.7898 10.4243C21.4741 9.26455 20.8173 8.22641 19.9047 7.44433C18.992 6.66226 17.8655 6.17232 16.6711 6.038C16.2631 4.85881 15.4976 3.83617 14.4811 3.11242C13.4647 2.38867 12.2479 1.99982 11.0001 2ZM12.9491 15.316C12.9906 15.1914 13.0071 15.0598 12.9978 14.9288C12.9884 14.7978 12.9534 14.6699 12.8946 14.5524C12.8358 14.4349 12.7545 14.3302 12.6552 14.2442C12.556 14.1581 12.4407 14.0925 12.3161 14.051C12.1915 14.0095 12.0599 13.993 11.9289 14.0023C11.7979 14.0117 11.67 14.0467 11.5525 14.1055C11.3153 14.2242 11.1349 14.4323 11.0511 14.684L9.0511 20.684C9.0096 20.8086 8.99306 20.9402 9.00241 21.0712C9.01176 21.2022 9.04683 21.3301 9.10561 21.4476C9.22432 21.6848 9.43241 21.8652 9.6841 21.949C9.93579 22.0328 10.2105 22.0132 10.4477 21.8945C10.6849 21.7758 10.8653 21.5677 10.9491 21.316L12.9491 15.316ZM16.3161 13.051C16.4407 13.0925 16.556 13.1581 16.6553 13.2441C16.7545 13.3301 16.8359 13.4349 16.8947 13.5524C16.9535 13.6698 16.9885 13.7977 16.9979 13.9288C17.0072 14.0598 16.9906 14.1914 16.9491 14.316L14.9491 20.316C14.8653 20.5677 14.6849 20.7758 14.4477 20.8945C14.2105 21.0132 13.9358 21.0328 13.6841 20.949C13.4324 20.8652 13.2243 20.6848 13.1056 20.4476C12.9869 20.2104 12.9673 19.9357 13.0511 19.684L15.0511 13.684C15.0926 13.5594 15.1582 13.4441 15.2442 13.3448C15.3302 13.2456 15.435 13.1642 15.5525 13.1054C15.6699 13.0466 15.7978 13.0116 15.9289 13.0022C16.0599 12.9929 16.1915 13.0095 16.3161 13.051ZM9.4501 14.316C9.53391 14.0643 9.5143 13.7896 9.39559 13.5524C9.27688 13.3152 9.06879 13.1348 8.8171 13.051C8.56541 12.9672 8.29073 12.9868 8.0535 13.1055C7.81627 13.2242 7.63591 13.4323 7.5521 13.684L5.5521 19.684C5.46829 19.9357 5.4879 20.2104 5.60661 20.4476C5.72532 20.6848 5.93341 20.8652 6.1851 20.949C6.43679 21.0328 6.71146 21.0132 6.9487 20.8945C7.18593 20.7758 7.36629 20.5677 7.4501 20.316L9.4501 14.316Z" fill="white"/>
</svg>
