<svg width="24" height="24" viewBox="0 0 24 24" fill="none" xmlns="http://www.w3.org/2000/svg">
<path d="M12 2C9.23858 2 7 4.23858 7 7V10H6C4.89543 10 4 10.8954 4 12V20C4 21.1046 4.89543 22 6 22H18C19.1046 22 20 21.1046 20 20V12C20 10.8954 19.1046 10 18 10H17V7C17 4.23858 14.7614 2 12 2ZM18 11.5C18.2761 11.5 18.5 11.7239 18.5 12V20C18.5 20.2761 18.2761 20.5 18 20.5H6C5.72386 20.5 5.5 20.2761 5.5 20V12C5.5 11.7239 5.72386 11.5 6 11.5H18ZM15.5 7V10H8.5V7C8.5 5.067 10.067 3.5 12 3.5C13.933 3.5 15.5 5.067 15.5 7ZM12 14.5C12.8284 14.5 13.5 15.1716 13.5 16C13.5 16.8284 12.8284 17.5 12 17.5C11.1716 17.5 10.5 16.8284 10.5 16C10.5 15.1716 11.1716 14.5 12 14.5Z" fill="white"/>
</svg>
