<svg width="24" height="24" viewBox="0 0 24 24" fill="none" xmlns="http://www.w3.org/2000/svg">
<path d="M7 18.95C6.18333 18.95 5.53333 19.1334 5.05 19.5C4.56667 19.8667 3.89167 20.125 3.025 20.275C2.74167 20.325 2.5 20.2584 2.3 20.075C2.1 19.8917 2 19.6584 2 19.375C2 19.0917 2.09567 18.8544 2.287 18.663C2.47833 18.4717 2.716 18.334 3 18.25C3.6 18.0667 4.16667 17.8124 4.7 17.487C5.23333 17.1617 6 16.9994 7 17C7.63333 17 8.15433 17.071 8.563 17.213C8.97167 17.355 9.35067 17.513 9.7 17.687C10.0493 17.861 10.3993 18.0237 10.75 18.175C11.1007 18.3264 11.5173 18.4014 12 18.4C12.4827 18.3987 12.8993 18.3237 13.25 18.175C13.6007 18.0264 13.9507 17.8637 14.3 17.687C14.6493 17.5104 15.0327 17.352 15.45 17.212C15.8673 17.072 16.384 17.0014 17 17C18 17 18.7667 17.1627 19.3 17.488C19.8333 17.8134 20.4 18.0674 21 18.25C21.2833 18.3334 21.521 18.471 21.713 18.663C21.905 18.855 22.0007 19.0924 22 19.375C21.9993 19.6577 21.8993 19.891 21.7 20.075C21.5007 20.259 21.259 20.3257 20.975 20.275C20.1083 20.125 19.4333 19.8667 18.95 19.5C18.4667 19.1334 17.8167 18.95 17 18.95C16.5333 18.95 16.129 19.021 15.787 19.163C15.445 19.305 15.1033 19.463 14.762 19.637C14.4207 19.811 14.0373 19.9737 13.612 20.125C13.1867 20.2764 12.6493 20.3514 12 20.35C11.3507 20.3487 10.813 20.2737 10.387 20.125C9.961 19.9764 9.57767 19.8137 9.237 19.637C8.89633 19.4604 8.559 19.302 8.225 19.162C7.891 19.022 7.48267 18.9514 7 18.95ZM7 14.5C6.18333 14.5 5.53333 14.6834 5.05 15.05C4.56667 15.4167 3.89167 15.675 3.025 15.825C2.74167 15.875 2.5 15.8084 2.3 15.625C2.1 15.4417 2 15.2084 2 14.925C2 14.6417 2.09567 14.4044 2.287 14.213C2.47833 14.0217 2.716 13.884 3 13.8C3.6 13.6167 4.16667 13.3624 4.7 13.037C5.23333 12.7117 6 12.5494 7 12.55C7.63333 12.55 8.15433 12.621 8.563 12.763C8.97167 12.905 9.35067 13.0634 9.7 13.238C10.0493 13.4127 10.3993 13.575 10.75 13.725C11.1007 13.875 11.5173 13.95 12 13.95C12.4827 13.95 12.8993 13.875 13.25 13.725C13.6007 13.575 13.9507 13.4127 14.3 13.238C14.6493 13.0634 15.0327 12.905 15.45 12.763C15.8673 12.621 16.384 12.55 17 12.55C18 12.55 18.7667 12.7127 19.3 13.038C19.8333 13.3634 20.4 13.6174 21 13.8C21.2833 13.8834 21.521 14.021 21.713 14.213C21.905 14.405 22.0007 14.6424 22 14.925C21.9993 15.2077 21.8993 15.441 21.7 15.625C21.5007 15.809 21.259 15.8757 20.975 15.825C20.1083 15.675 19.4333 15.4167 18.95 15.05C18.4667 14.6834 17.8167 14.5 17 14.5C16.5167 14.5 16.1043 14.5707 15.763 14.712C15.4217 14.8534 15.0797 15.0117 14.737 15.187C14.3943 15.3624 14.0153 15.525 13.6 15.675C13.1847 15.825 12.6513 15.9 12 15.9C11.3487 15.9 10.8113 15.825 10.388 15.675C9.96467 15.525 9.58133 15.3624 9.238 15.187C8.89467 15.0117 8.557 14.8537 8.225 14.713C7.893 14.5724 7.48467 14.5014 7 14.5ZM7 10.05C6.18333 10.05 5.53333 10.2334 5.05 10.6C4.56667 10.9667 3.89167 11.225 3.025 11.375C2.74167 11.425 2.5 11.3584 2.3 11.175C2.1 10.9917 2 10.7584 2 10.475C2 10.1917 2.096 9.95436 2.288 9.76303C2.48 9.57169 2.71733 9.43403 3 9.35003C3.6 9.16669 4.16667 8.91236 4.7 8.58703C5.23333 8.26169 6 8.09936 7 8.10003C7.63333 8.10003 8.15433 8.17103 8.563 8.31303C8.97167 8.45503 9.35067 8.61303 9.7 8.78703C10.0493 8.96103 10.3993 9.12369 10.75 9.27503C11.1007 9.42636 11.5173 9.50136 12 9.50003C12.4827 9.49869 12.8993 9.42369 13.25 9.27503C13.6007 9.12636 13.9507 8.96369 14.3 8.78703C14.6493 8.61036 15.0327 8.45203 15.45 8.31203C15.8673 8.17203 16.384 8.10136 17 8.10003C18 8.10003 18.7667 8.26269 19.3 8.58803C19.8333 8.91336 20.4 9.16736 21 9.35003C21.2833 9.43336 21.521 9.57103 21.713 9.76303C21.905 9.95503 22.0007 10.1924 22 10.475C21.9993 10.7577 21.8993 10.991 21.7 11.175C21.5007 11.359 21.259 11.4257 20.975 11.375C20.1083 11.225 19.4333 10.9667 18.95 10.6C18.4667 10.2334 17.8167 10.05 17 10.05C16.5333 10.05 16.129 10.1207 15.787 10.262C15.445 10.4034 15.1033 10.5617 14.762 10.737C14.4207 10.9124 14.0373 11.075 13.612 11.225C13.1867 11.375 12.6493 11.45 12 11.45C11.3507 11.45 10.813 11.375 10.387 11.225C9.961 11.075 9.57767 10.9124 9.237 10.737C8.89633 10.5617 8.559 10.4034 8.225 10.262C7.891 10.1207 7.48267 10.05 7 10.05ZM7 5.60003C6.18333 5.60003 5.53333 5.78336 5.05 6.15003C4.56667 6.51669 3.89167 6.77503 3.025 6.92503C2.74167 6.97503 2.5 6.90836 2.3 6.72503C2.1 6.54169 2 6.30836 2 6.02503C2 5.74169 2.09567 5.50403 2.287 5.31203C2.47833 5.12003 2.716 4.98269 3 4.90003C3.6 4.71669 4.16667 4.46236 4.7 4.13703C5.23333 3.81169 6 3.64936 7 3.65003C7.63333 3.65003 8.15433 3.72103 8.563 3.86303C8.97167 4.00503 9.35067 4.16336 9.7 4.33803C10.0493 4.51269 10.3993 4.67503 10.75 4.82503C11.1007 4.97503 11.5173 5.05003 12 5.05003C12.4827 5.05003 12.8993 4.97503 13.25 4.82503C13.6007 4.67503 13.9507 4.51236 14.3 4.33703C14.6493 4.16169 15.0327 4.00369 15.45 3.86303C15.8673 3.72236 16.384 3.65136 17 3.65003C18 3.65003 18.7667 3.81269 19.3 4.13803C19.8333 4.46336 20.4 4.71736 21 4.90003C21.2833 4.98336 21.521 5.12103 21.713 5.31303C21.905 5.50503 22.0007 5.74236 22 6.02503C21.9993 6.30769 21.8993 6.54103 21.7 6.72503C21.5007 6.90903 21.259 6.97569 20.975 6.92503C20.1083 6.77503 19.4333 6.51669 18.95 6.15003C18.4667 5.78336 17.8167 5.60003 17 5.60003C16.5333 5.60003 16.129 5.67103 15.787 5.81303C15.445 5.95503 15.1033 6.11336 14.762 6.28803C14.4207 6.46269 14.0373 6.62503 13.612 6.77503C13.1867 6.92503 12.6493 7.00003 12 7.00003C11.3507 7.00003 10.813 6.92503 10.387 6.77503C9.961 6.62503 9.57767 6.46236 9.237 6.28703C8.89633 6.11169 8.559 5.95369 8.225 5.81303C7.891 5.67236 7.48267 5.60136 7 5.60003Z" fill="white"/>
</svg>
